<svg width="334" height="343" viewBox="0 0 334 343" fill="none" xmlns="http://www.w3.org/2000/svg">
<rect width="73.7942" height="74.4854" fill="black"/>
<path d="M73.794 171.322C73.7936 191.306 79.9351 210.871 91.4746 227.324C104.362 245.699 123.193 259.068 144.79 265.173C166.388 271.278 189.43 269.747 210.03 260.839C230.631 251.931 247.529 236.191 257.873 216.273L323.362 250.283C305.191 285.272 275.508 312.924 239.32 328.572C203.133 344.221 162.655 346.91 124.716 336.185C86.7764 325.46 53.6968 301.977 31.0576 269.698C10.7868 240.796 -0.000629579 206.426 3.15005e-05 171.322L3.03826e-08 103.438H73.794V171.322Z" fill="black"/>
<path d="M171.321 0.00206178C202.909 0.00202713 234.042 8.73774 261.184 25.4591C294.751 46.1391 320.158 77.7637 333.12 114.998L263.428 139.259C256.049 118.063 241.585 100.06 222.477 88.2872C207.026 78.7684 189.303 73.7941 171.321 73.7941H103.577V0.00195312L171.321 0.00206178Z" fill="black"/>
</svg>
